# Blender v3.4.1 OBJ File: 'Circle_Caps_and_Bottles.blend'
# www.blender.org
mtllib Circle_cube_bottle.mtl
o Bottle_Cube
v -0.040000 -0.040000 0.040000
v 0.000000 0.012000 -0.023200
v -0.040000 0.040000 0.040000
v -0.040000 -0.040000 -0.040000
v 0.004526 0.012000 -0.022754
v -0.040000 0.040000 -0.040000
v 0.040000 -0.040000 0.040000
v 0.008878 0.012000 -0.021434
v 0.040000 0.040000 0.040000
v 0.040000 -0.040000 -0.040000
v 0.012889 0.012000 -0.019290
v 0.040000 0.040000 -0.040000
v 0.016405 0.012000 -0.016405
v 0.019290 0.012000 -0.012889
v 0.021434 0.012000 -0.008878
v 0.022754 0.012000 -0.004526
v 0.023200 0.012000 0.000000
v 0.022754 0.012000 0.004526
v 0.021434 0.012000 0.008878
v 0.019290 0.012000 0.012889
v 0.016405 0.012000 0.016405
v 0.012889 0.012000 0.019290
v 0.008878 0.012000 0.021434
v 0.004526 0.012000 0.022754
v 0.000000 0.012000 0.023200
v -0.004526 0.012000 0.022754
v -0.008878 0.012000 0.021434
v -0.012889 0.012000 0.019290
v -0.016405 0.012000 0.016405
v -0.019290 0.012000 0.012889
v -0.021434 0.012000 0.008878
v -0.022754 0.012000 0.004526
v -0.023200 0.012000 0.000000
v -0.022754 0.012000 -0.004526
v -0.021434 0.012000 -0.008878
v -0.019290 0.012000 -0.012889
v -0.016405 0.012000 -0.016405
v -0.012889 0.012000 -0.019290
v -0.008878 0.012000 -0.021434
v -0.004526 0.012000 -0.022754
v -0.023200 0.040000 0.000000
v -0.022754 0.040000 -0.004526
v -0.022754 0.040000 0.004526
v -0.019290 0.040000 0.012889
v -0.019290 0.040000 -0.012889
v -0.016405 0.040000 0.016405
v -0.021434 0.040000 0.008878
v -0.021434 0.040000 -0.008878
v -0.012889 0.040000 -0.019290
v -0.004526 0.040000 -0.022754
v -0.008878 0.040000 -0.021434
v 0.004526 0.040000 -0.022754
v 0.016405 0.040000 -0.016405
v 0.012889 0.040000 -0.019290
v 0.008878 0.040000 -0.021434
v 0.000000 0.040000 -0.023200
v -0.016405 0.040000 -0.016405
v -0.012889 0.040000 0.019290
v -0.004526 0.040000 0.022754
v -0.008878 0.040000 0.021434
v 0.004526 0.040000 0.022754
v 0.012889 0.040000 0.019290
v 0.008878 0.040000 0.021434
v 0.000000 0.040000 0.023200
v 0.019290 0.040000 0.012889
v 0.019290 0.040000 -0.012889
v 0.023200 0.040000 0.000000
v 0.022754 0.040000 0.004526
v 0.022754 0.040000 -0.004526
v 0.021434 0.040000 0.008878
v 0.021434 0.040000 -0.008878
v 0.016405 0.040000 0.016405
vt 0.375000 0.000000
vt 0.625000 0.000000
vt 0.625000 0.250000
vt 0.375000 0.250000
vt 0.625000 0.500000
vt 0.375000 0.500000
vt 0.625000 0.750000
vt 0.375000 0.750000
vt 0.625000 1.000000
vt 0.375000 1.000000
vt 0.125000 0.500000
vt 0.125000 0.750000
vt 0.801265 0.676265
vt 0.875000 0.750000
vt 0.698735 0.676265
vt 0.709721 0.685282
vt 0.722255 0.691981
vt 0.735856 0.696107
vt 0.750000 0.697500
vt 0.764144 0.696107
vt 0.777745 0.691981
vt 0.790279 0.685282
vt 0.875000 0.500000
vt 0.810282 0.665279
vt 0.816981 0.652745
vt 0.821107 0.639144
vt 0.822500 0.625000
vt 0.821107 0.610856
vt 0.816981 0.597255
vt 0.810282 0.584721
vt 0.801265 0.573735
vt 0.790279 0.564718
vt 0.777745 0.558019
vt 0.764144 0.553893
vt 0.750000 0.552500
vt 0.735856 0.553893
vt 0.722255 0.558019
vt 0.709721 0.564718
vt 0.698735 0.573735
vt 0.689718 0.584721
vt 0.683019 0.597255
vt 0.678893 0.610856
vt 0.677500 0.625000
vt 0.678893 0.639144
vt 0.683019 0.652745
vt 0.689718 0.665279
vt 1.000000 0.937500
vt 1.000000 0.500000
vt 0.968750 0.500000
vt 0.968750 0.937500
vt 0.937500 0.500000
vt 0.937500 0.937500
vt 0.906250 0.500000
vt 0.906250 0.937500
vt 0.875000 0.500000
vt 0.875000 0.937500
vt 0.843750 0.500000
vt 0.843750 0.937500
vt 0.812500 0.500000
vt 0.812500 0.937500
vt 0.781250 0.500000
vt 0.781250 0.937500
vt 0.750000 0.500000
vt 0.750000 0.937500
vt 0.718750 0.500000
vt 0.718750 0.937500
vt 0.687500 0.500000
vt 0.687500 0.937500
vt 0.656250 0.500000
vt 0.656250 0.937500
vt 0.625000 0.500000
vt 0.625000 0.937500
vt 0.593750 0.500000
vt 0.593750 0.937500
vt 0.562500 0.500000
vt 0.562500 0.937500
vt 0.531250 0.500000
vt 0.531250 0.937500
vt 0.500000 0.500000
vt 0.500000 0.937500
vt 0.468750 0.500000
vt 0.468750 0.937500
vt 0.437500 0.500000
vt 0.437500 0.937500
vt 0.406250 0.500000
vt 0.406250 0.937500
vt 0.375000 0.500000
vt 0.375000 0.937500
vt 0.343750 0.500000
vt 0.343750 0.937500
vt 0.312500 0.500000
vt 0.312500 0.937500
vt 0.281250 0.500000
vt 0.281250 0.937500
vt 0.250000 0.500000
vt 0.250000 0.937500
vt 0.218750 0.500000
vt 0.218750 0.937500
vt 0.187500 0.500000
vt 0.187500 0.937500
vt 0.156250 0.500000
vt 0.156250 0.937500
vt 0.125000 0.500000
vt 0.125000 0.937500
vt 0.093750 0.500000
vt 0.093750 0.937500
vt 0.062500 0.500000
vt 0.062500 0.937500
vt 0.031250 0.500000
vt 0.031250 0.937500
vt 0.000000 0.500000
vt 0.000000 0.937500
vt 0.550447 0.383337
vt 0.528269 0.341844
vt 0.514612 0.296822
vt 0.510000 0.250000
vt 0.514612 0.203178
vt 0.528269 0.158156
vt 0.550447 0.116663
vt 0.580294 0.080294
vt 0.616663 0.050447
vt 0.658156 0.028269
vt 0.703178 0.014612
vt 0.750000 0.010000
vt 0.796822 0.014612
vt 0.841844 0.028269
vt 0.883337 0.050447
vt 0.919706 0.080294
vt 0.949553 0.116663
vt 0.971731 0.158156
vt 0.985388 0.203178
vt 0.990000 0.250000
vt 0.985388 0.296822
vt 0.971731 0.341844
vt 0.949553 0.383337
vt 0.919706 0.419706
vt 0.883337 0.449553
vt 0.841844 0.471731
vt 0.796822 0.485388
vt 0.750000 0.490000
vt 0.703178 0.485388
vt 0.658156 0.471731
vt 0.616663 0.449553
vt 0.580294 0.419706
vn -1.0000 0.0000 0.0000
vn 0.0000 0.0000 -1.0000
vn 1.0000 0.0000 0.0000
vn 0.0000 0.0000 1.0000
vn 0.0000 -1.0000 0.0000
vn 0.0000 1.0000 -0.0000
vn -0.0980 0.0000 0.9952
vn -0.2903 0.0000 0.9569
vn -0.4714 0.0000 0.8819
vn -0.6344 0.0000 0.7730
vn -0.7730 0.0000 0.6344
vn -0.8819 0.0000 0.4714
vn -0.9569 0.0000 0.2903
vn -0.9952 0.0000 0.0980
vn -0.9952 0.0000 -0.0980
vn -0.9569 0.0000 -0.2903
vn -0.8819 0.0000 -0.4714
vn -0.7730 0.0000 -0.6344
vn -0.6344 0.0000 -0.7730
vn -0.4714 0.0000 -0.8819
vn -0.2903 0.0000 -0.9569
vn -0.0980 0.0000 -0.9952
vn 0.0980 0.0000 -0.9952
vn 0.2903 0.0000 -0.9569
vn 0.4714 0.0000 -0.8819
vn 0.6344 0.0000 -0.7730
vn 0.7730 0.0000 -0.6344
vn 0.8819 0.0000 -0.4714
vn 0.9569 0.0000 -0.2903
vn 0.9952 0.0000 -0.0980
vn 0.9952 0.0000 0.0980
vn 0.9569 0.0000 0.2903
vn 0.8819 0.0000 0.4714
vn 0.7730 0.0000 0.6344
vn 0.6344 0.0000 0.7730
vn 0.4714 0.0000 0.8819
vn 0.2903 0.0000 0.9569
vn 0.0980 0.0000 0.9952
usemtl Red
s off
f 1/1/1 3/2/1 6/3/1 4/4/1
f 4/4/2 6/3/2 12/5/2 10/6/2
f 10/6/3 12/5/3 9/7/3 7/8/3
f 7/8/4 9/7/4 3/9/4 1/10/4
f 4/11/5 10/6/5 7/8/5 1/12/5
f 46/13/6 3/14/6 9/7/6 72/15/6 62/16/6 63/17/6 61/18/6 64/19/6 59/20/6 60/21/6 58/22/6
f 9/7/6 12/5/6 6/23/6 3/14/6 46/13/6 44/24/6 47/25/6 43/26/6 41/27/6 42/28/6 48/29/6 45/30/6 57/31/6 49/32/6 51/33/6 50/34/6 56/35/6 52/36/6 55/37/6 54/38/6 53/39/6 66/40/6 71/41/6 69/42/6 67/43/6 68/44/6 70/45/6 65/46/6 72/15/6
usemtl Blue
f 56/47/7 2/48/7 5/49/7 52/50/7
f 52/50/8 5/49/8 8/51/8 55/52/8
f 55/52/9 8/51/9 11/53/9 54/54/9
f 54/54/10 11/53/10 13/55/10 53/56/10
f 13/55/11 14/57/11 66/58/11 53/56/11
f 14/57/12 15/59/12 71/60/12 66/58/12
f 15/59/13 16/61/13 69/62/13 71/60/13
f 16/61/14 17/63/14 67/64/14 69/62/14
f 17/63/15 18/65/15 68/66/15 67/64/15
f 18/65/16 19/67/16 70/68/16 68/66/16
f 19/67/17 20/69/17 65/70/17 70/68/17
f 20/69/18 21/71/18 72/72/18 65/70/18
f 21/71/19 22/73/19 62/74/19 72/72/19
f 22/73/20 23/75/20 63/76/20 62/74/20
f 23/75/21 24/77/21 61/78/21 63/76/21
f 24/77/22 25/79/22 64/80/22 61/78/22
f 25/79/23 26/81/23 59/82/23 64/80/23
f 26/81/24 27/83/24 60/84/24 59/82/24
f 27/83/25 28/85/25 58/86/25 60/84/25
f 28/85/26 29/87/26 46/88/26 58/86/26
f 46/88/27 29/87/27 30/89/27 44/90/27
f 44/90/28 30/89/28 31/91/28 47/92/28
f 47/92/29 31/91/29 32/93/29 43/94/29
f 43/94/30 32/93/30 33/95/30 41/96/30
f 41/96/31 33/95/31 34/97/31 42/98/31
f 42/98/32 34/97/32 35/99/32 48/100/32
f 48/100/33 35/99/33 36/101/33 45/102/33
f 45/102/34 36/101/34 37/103/34 57/104/34
f 57/104/35 37/103/35 38/105/35 49/106/35
f 49/106/36 38/105/36 39/107/36 51/108/36
f 51/108/37 39/107/37 40/109/37 50/110/37
f 50/110/38 40/109/38 2/111/38 56/112/38
f 36/113/6 35/114/6 34/115/6 33/116/6 32/117/6 31/118/6 30/119/6 29/120/6 28/121/6 27/122/6 26/123/6 25/124/6 24/125/6 23/126/6 22/127/6 21/128/6 20/129/6 19/130/6 18/131/6 17/132/6 16/133/6 15/134/6 14/135/6 13/136/6 11/137/6 8/138/6 5/139/6 2/140/6 40/141/6 39/142/6 38/143/6 37/144/6
