# Blender v3.4.1 OBJ File: 'Cross_Caps_and_Bottles.blend'
# www.blender.org
mtllib Cross_cube_cap.mtl
o Cap_Cube.001
v -0.040000 -0.040000 0.040000
v -0.040000 0.040000 0.040000
v -0.040000 -0.040000 -0.040000
v -0.040000 0.040000 -0.040000
v 0.040000 -0.040000 0.040000
v 0.040000 0.040000 0.040000
v 0.040000 -0.040000 -0.040000
v 0.040000 0.040000 -0.040000
v -0.019500 0.040000 0.006500
v -0.006500 0.040000 0.019500
v -0.019500 0.064000 0.006500
v -0.006500 0.064000 0.019500
v -0.019500 0.040000 -0.006500
v -0.006500 0.040000 -0.019500
v -0.019500 0.064000 -0.006500
v -0.006500 0.064000 -0.019500
v 0.019500 0.040000 0.006500
v 0.006500 0.040000 0.019500
v 0.019500 0.064000 0.006500
v 0.006500 0.064000 0.019500
v 0.019500 0.040000 -0.006500
v 0.006500 0.040000 -0.019500
v 0.019500 0.064000 -0.006500
v 0.006500 0.064000 -0.019500
v 0.006500 0.064000 -0.006500
v -0.006500 0.064000 -0.006500
v -0.006500 0.040000 -0.006500
v 0.006500 0.040000 -0.006500
v -0.006500 0.064000 0.006500
v 0.006500 0.064000 0.006500
v -0.006500 0.040000 0.006500
v 0.006500 0.040000 0.006500
v -0.006500 0.064000 0.002167
v -0.006500 0.040000 -0.002167
v 0.006500 0.064000 -0.002167
v 0.006500 0.040000 0.002167
vt 0.375000 0.000000
vt 0.625000 0.000000
vt 0.625000 0.250000
vt 0.375000 0.250000
vt 0.625000 0.500000
vt 0.375000 0.500000
vt 0.625000 0.750000
vt 0.375000 0.750000
vt 0.625000 1.000000
vt 0.375000 1.000000
vt 0.125000 0.500000
vt 0.125000 0.750000
vt 0.875000 0.500000
vt 0.875000 0.750000
vt 0.375000 0.500000
vt 0.375000 0.750000
vt 0.291667 0.750000
vt 0.291667 0.666667
vt 0.291667 0.500000
vt 0.125000 0.750000
vt 0.125000 0.500000
vt 0.208333 0.500000
vt 0.208333 0.583333
vt 0.208333 0.750000
vt 0.375000 0.666667
vt 0.375000 0.750000
vt 0.125000 0.750000
vt 0.125000 0.666667
vt 0.125000 0.583333
vt 0.125000 0.500000
vt 0.375000 0.500000
vt 0.375000 0.583333
vt 0.375000 0.000000
vt 0.625000 0.000000
vt 0.625000 0.250000
vt 0.375000 0.250000
vt 0.625000 0.416667
vt 0.625000 0.500000
vt 0.375000 0.416667
vt 0.625000 0.333333
vt 0.375000 0.333333
vt 0.625000 0.750000
vt 0.625000 1.000000
vt 0.375000 1.000000
vt 0.375000 0.916667
vt 0.625000 0.916667
vt 0.375000 0.833333
vt 0.625000 0.833333
vt 0.791667 0.666667
vt 0.791667 0.500000
vt 0.875000 0.500000
vt 0.875000 0.750000
vt 0.791667 0.750000
vt 0.708333 0.583333
vt 0.708333 0.750000
vt 0.708333 0.500000
vt 0.625000 0.166667
vt 0.625000 0.250000
vt 0.375000 0.250000
vt 0.375000 0.166667
vt 0.375000 0.000000
vt 0.625000 0.000000
vt 0.625000 0.083333
vt 0.375000 0.083333
vt 0.625000 0.500000
vt 0.625000 0.750000
vt 0.625000 0.666667
vt 0.625000 0.583333
vt 0.625000 1.000000
vt 0.375000 1.000000
vt 0.875000 0.666667
vt 0.875000 0.750000
vt 0.875000 0.500000
vt 0.875000 0.583333
vn -1.0000 0.0000 0.0000
vn 0.0000 0.0000 -1.0000
vn 1.0000 0.0000 0.0000
vn 0.0000 0.0000 1.0000
vn 0.0000 -1.0000 0.0000
vn 0.0000 1.0000 0.0000
usemtl Red
s off
f 1/1/1 2/2/1 4/3/1 3/4/1
f 3/4/2 4/3/2 8/5/2 7/6/2
f 7/6/3 8/5/3 6/7/3 5/8/3
f 5/8/4 6/7/4 2/9/4 1/10/4
f 3/11/5 7/6/5 5/8/5 1/12/5
f 8/5/6 4/13/6 2/14/6 6/7/6
f 21/15/5 17/16/5 32/17/5 36/18/5 28/19/5
f 9/20/5 13/21/5 27/22/5 34/23/5 31/24/5
f 27/22/5 28/19/5 36/18/5 34/23/5
f 32/17/5 31/24/5 34/23/5 36/18/5
f 32/25/5 18/26/5 10/27/5 31/28/5
f 27/29/5 14/30/5 22/31/5 28/32/5
usemtl Blue
f 9/33/1 11/34/1 15/35/1 13/36/1
f 25/37/2 23/38/2 21/15/2 28/39/2
f 13/36/2 15/35/2 26/40/2 27/41/2
f 21/15/3 23/38/3 19/42/3 17/16/3
f 11/43/4 9/44/4 31/45/4 29/46/4
f 32/47/4 17/16/4 19/42/4 30/48/4
f 33/49/6 26/50/6 15/51/6 11/52/6 29/53/6
f 35/54/6 30/55/6 19/42/6 23/38/6 25/56/6
f 26/50/6 33/49/6 35/54/6 25/56/6
f 30/55/6 35/54/6 33/49/6 29/53/6
f 26/57/1 16/58/1 14/59/1 27/60/1
f 10/61/1 12/62/1 29/63/1 31/64/1
f 14/59/2 16/58/2 24/65/2 22/31/2
f 20/66/3 18/26/3 32/25/3 30/67/3
f 28/32/3 22/31/3 24/65/3 25/68/3
f 18/26/4 20/66/4 12/69/4 10/70/4
f 29/71/6 12/72/6 20/66/6 30/67/6
f 25/68/6 24/65/6 16/73/6 26/74/6
