# Blender v3.4.1 OBJ File: 'Diamond_Caps_and_Bottles.blend'
# www.blender.org
mtllib Diamond_cube_bottle.mtl
o Bottle_Cube
v -0.040000 -0.040000 0.040000
v 0.000000 0.012000 0.018540
v -0.040000 0.040000 0.040000
v -0.040000 -0.040000 -0.040000
v -0.028800 0.012000 0.000000
v -0.040000 0.040000 -0.040000
v 0.040000 -0.040000 0.040000
v 0.028800 0.012000 0.000000
v 0.040000 0.040000 0.040000
v 0.040000 -0.040000 -0.040000
v 0.000000 0.012000 -0.018540
v 0.040000 0.040000 -0.040000
v -0.025200 0.040000 0.002318
v -0.028800 0.040000 0.000000
v 0.000000 0.040000 -0.018540
v 0.000000 0.040000 0.018540
v 0.028800 0.040000 0.000000
v 0.025200 0.040000 -0.002318
vt 0.375000 0.000000
vt 0.625000 0.000000
vt 0.625000 0.250000
vt 0.375000 0.250000
vt 0.625000 0.500000
vt 0.375000 0.500000
vt 0.625000 0.750000
vt 0.375000 0.750000
vt 0.625000 1.000000
vt 0.375000 1.000000
vt 0.125000 0.500000
vt 0.125000 0.750000
vt 0.828750 0.632242
vt 0.875000 0.750000
vt 0.671250 0.617758
vt 0.660000 0.625000
vt 0.750000 0.682938
vt 0.875000 0.500000
vt 0.840000 0.625000
vt 0.750000 0.567062
vt 0.375000 0.000000
vt 0.375000 0.250000
vt 0.593750 0.250000
vt 0.593750 0.218750
vt 0.593750 0.000000
vt 0.375000 0.500000
vt 0.593750 0.500000
vt 0.375000 0.750000
vt 0.593750 0.750000
vt 0.593750 0.718750
vt 0.375000 1.000000
vt 0.593750 1.000000
vt 0.125000 0.500000
vt 0.125000 0.750000
vn -1.0000 0.0000 0.0000
vn 0.0000 0.0000 -1.0000
vn 1.0000 0.0000 0.0000
vn 0.0000 0.0000 1.0000
vn 0.0000 -1.0000 0.0000
vn 0.0000 1.0000 0.0000
vn 0.5413 0.0000 -0.8408
vn 0.5413 0.0000 0.8408
vn -0.5413 0.0000 0.8408
vn -0.5413 0.0000 -0.8408
usemtl Red
s off
f 1/1/1 3/2/1 6/3/1 4/4/1
f 4/4/2 6/3/2 12/5/2 10/6/2
f 10/6/3 12/5/3 9/7/3 7/8/3
f 7/8/4 9/7/4 3/9/4 1/10/4
f 4/11/5 10/6/5 7/8/5 1/12/5
f 13/13/6 3/14/6 9/7/6 12/5/6 18/15/6 17/16/6 16/17/6
f 18/15/6 12/5/6 6/18/6 3/14/6 13/13/6 14/19/6 15/20/6
usemtl Blue
f 2/21/7 5/22/7 14/23/7 13/24/7 16/25/7
f 14/23/8 5/22/8 11/26/8 15/27/8
f 15/27/9 11/26/9 8/28/9 17/29/9 18/30/9
f 8/28/10 2/31/10 16/32/10 17/29/10
f 5/33/6 2/34/6 8/28/6 11/26/6
