# Blender v3.4.1 OBJ File: 'Diamond_Caps_and_Bottles.blend'
# www.blender.org
mtllib Diamond_cube_cap.mtl
o Cap_Cube.001
v -0.040000 -0.040000 0.040000
v -0.040000 0.040000 0.040000
v -0.040000 -0.040000 -0.040000
v -0.040000 0.040000 -0.040000
v 0.040000 -0.040000 0.040000
v 0.040000 0.040000 0.040000
v 0.040000 -0.040000 -0.040000
v 0.040000 0.040000 -0.040000
v 0.000000 0.040000 0.013390
v 0.000000 0.064000 0.013390
v -0.020800 0.040000 0.000000
v -0.020800 0.064000 0.000000
v 0.020800 0.040000 0.000000
v 0.020800 0.064000 0.000000
v 0.000000 0.040000 -0.013390
v 0.000000 0.064000 -0.013390
vt 0.375000 0.000000
vt 0.625000 0.000000
vt 0.625000 0.250000
vt 0.375000 0.250000
vt 0.625000 0.500000
vt 0.375000 0.500000
vt 0.625000 0.750000
vt 0.375000 0.750000
vt 0.625000 1.000000
vt 0.375000 1.000000
vt 0.125000 0.500000
vt 0.125000 0.750000
vt 0.875000 0.500000
vt 0.875000 0.750000
vt 0.125000 0.500000
vt 0.375000 0.500000
vt 0.375000 0.750000
vt 0.125000 0.750000
vt 0.375000 0.000000
vt 0.625000 0.000000
vt 0.625000 0.250000
vt 0.375000 0.250000
vt 0.625000 0.500000
vt 0.625000 0.750000
vt 0.625000 1.000000
vt 0.375000 1.000000
vt 0.875000 0.500000
vt 0.875000 0.750000
vn -1.0000 0.0000 0.0000
vn 0.0000 0.0000 -1.0000
vn 1.0000 0.0000 0.0000
vn 0.0000 0.0000 1.0000
vn 0.0000 -1.0000 0.0000
vn 0.0000 1.0000 0.0000
vn -0.5413 0.0000 0.8408
vn -0.5413 0.0000 -0.8408
vn 0.5413 0.0000 -0.8408
vn 0.5413 0.0000 0.8408
usemtl Red
s off
f 1/1/1 2/2/1 4/3/1 3/4/1
f 3/4/2 4/3/2 8/5/2 7/6/2
f 7/6/3 8/5/3 6/7/3 5/8/3
f 5/8/4 6/7/4 2/9/4 1/10/4
f 3/11/5 7/6/5 5/8/5 1/12/5
f 8/5/6 4/13/6 2/14/6 6/7/6
f 11/15/5 15/16/5 13/17/5 9/18/5
usemtl Blue
f 9/19/7 10/20/7 12/21/7 11/22/7
f 11/22/8 12/21/8 16/23/8 15/16/8
f 15/16/9 16/23/9 14/24/9 13/17/9
f 13/17/10 14/24/10 10/25/10 9/26/10
f 16/23/6 12/27/6 10/28/6 14/24/6
