# Blender v3.4.1 OBJ File: 'Hexagon_Caps_and_Bottles.blend'
# www.blender.org
mtllib Hexagon_cube_cap.mtl
o Cap_Cube.001
v -0.040000 -0.040000 0.040000
v -0.040000 0.040000 0.040000
v -0.040000 -0.040000 -0.040000
v -0.040000 0.040000 -0.040000
v 0.040000 -0.040000 0.040000
v 0.040000 0.040000 0.040000
v 0.040000 -0.040000 -0.040000
v 0.040000 0.040000 -0.040000
v 0.000000 0.040000 -0.020800
v 0.000000 0.064000 -0.020800
v 0.018070 0.040000 -0.010400
v 0.018070 0.064000 -0.010400
v 0.018070 0.040000 0.010400
v 0.018070 0.064000 0.010400
v 0.000000 0.040000 0.020800
v 0.000000 0.064000 0.020800
v -0.018070 0.040000 0.010400
v -0.018070 0.064000 0.010400
v -0.018070 0.040000 -0.010400
v -0.018070 0.064000 -0.010400
vt 0.375000 0.000000
vt 0.625000 0.000000
vt 0.625000 0.250000
vt 0.375000 0.250000
vt 0.625000 0.500000
vt 0.375000 0.500000
vt 0.625000 0.750000
vt 0.375000 0.750000
vt 0.625000 1.000000
vt 0.375000 1.000000
vt 0.125000 0.500000
vt 0.125000 0.750000
vt 0.875000 0.500000
vt 0.875000 0.750000
vt 0.750000 0.490000
vt 0.957846 0.370000
vt 0.957846 0.130000
vt 0.750000 0.010000
vt 0.542154 0.130000
vt 0.542154 0.370000
vt 1.000000 0.500000
vt 1.000000 1.000000
vt 0.833333 1.000000
vt 0.833333 0.500000
vt 0.666667 1.000000
vt 0.666667 0.500000
vt 0.500000 1.000000
vt 0.500000 0.500000
vt 0.333333 1.000000
vt 0.333333 0.500000
vt 0.457846 0.370000
vt 0.250000 0.490000
vt 0.042154 0.370000
vt 0.042154 0.130000
vt 0.250000 0.010000
vt 0.457846 0.130000
vt 0.166667 1.000000
vt 0.166667 0.500000
vt -0.000000 1.000000
vt -0.000000 0.500000
vn -1.0000 0.0000 0.0000
vn 0.0000 0.0000 -1.0000
vn 1.0000 0.0000 0.0000
vn 0.0000 0.0000 1.0000
vn 0.0000 -1.0000 0.0000
vn 0.0000 1.0000 0.0000
vn 0.4988 0.0000 -0.8667
vn 0.4988 0.0000 0.8667
vn -0.4988 0.0000 0.8667
vn -0.4988 0.0000 -0.8667
usemtl Red
s off
f 1/1/1 2/2/1 4/3/1 3/4/1
f 3/4/2 4/3/2 8/5/2 7/6/2
f 7/6/3 8/5/3 6/7/3 5/8/3
f 5/8/4 6/7/4 2/9/4 1/10/4
f 3/11/5 7/6/5 5/8/5 1/12/5
f 8/5/6 4/13/6 2/14/6 6/7/6
f 9/15/5 11/16/5 13/17/5 15/18/5 17/19/5 19/20/5
usemtl Blue
f 9/21/7 10/22/7 12/23/7 11/24/7
f 11/24/3 12/23/3 14/25/3 13/26/3
f 13/26/8 14/25/8 16/27/8 15/28/8
f 15/28/9 16/27/9 18/29/9 17/30/9
f 12/31/6 10/32/6 20/33/6 18/34/6 16/35/6 14/36/6
f 17/30/1 18/29/1 20/37/1 19/38/1
f 19/38/10 20/37/10 10/39/10 9/40/10
