# Blender v3.4.1 OBJ File: 'U_Caps_and_Bottles.blend'
# www.blender.org
mtllib U_cube_cap.mtl
o Cap_Cube.001
v -0.040000 -0.040000 0.040000
v -0.040000 0.040000 0.040000
v -0.040000 -0.040000 -0.040000
v -0.040000 0.040000 -0.040000
v 0.040000 -0.040000 0.040000
v 0.040000 0.040000 0.040000
v 0.040000 -0.040000 -0.040000
v 0.040000 0.040000 -0.040000
v -0.015600 0.040000 0.015600
v -0.007800 0.040000 0.005200
v -0.015600 0.064000 0.015600
v -0.007800 0.064000 0.005200
v -0.015600 0.040000 -0.015600
v -0.007800 0.040000 -0.005200
v -0.015600 0.064000 -0.015600
v -0.007800 0.064000 -0.005200
v 0.015600 0.040000 0.015600
v 0.015600 0.064000 0.015600
v 0.015600 0.040000 -0.015600
v 0.015600 0.064000 -0.015600
v 0.015600 0.064000 0.005200
v 0.015600 0.064000 -0.005200
v 0.015600 0.040000 0.005200
v 0.015600 0.040000 -0.005200
vt 0.375000 0.000000
vt 0.625000 0.000000
vt 0.625000 0.250000
vt 0.375000 0.250000
vt 0.625000 0.500000
vt 0.375000 0.500000
vt 0.625000 0.750000
vt 0.375000 0.750000
vt 0.625000 1.000000
vt 0.375000 1.000000
vt 0.125000 0.500000
vt 0.125000 0.750000
vt 0.875000 0.500000
vt 0.875000 0.750000
vt 0.375000 0.750000
vt 0.125000 0.750000
vt 0.125000 0.500000
vt 0.375000 0.500000
vt 0.375000 0.583333
vt 0.187500 0.583333
vt 0.187500 0.666667
vt 0.375000 0.666667
vt 0.375000 0.000000
vt 0.625000 0.000000
vt 0.625000 0.250000
vt 0.375000 0.250000
vt 0.625000 0.500000
vt 0.625000 0.750000
vt 0.625000 0.666667
vt 0.625000 0.583333
vt 0.625000 1.000000
vt 0.375000 1.000000
vt 0.875000 0.500000
vt 0.875000 0.750000
vt 0.812500 0.666667
vt 0.812500 0.583333
vt 0.625000 0.000000
vt 0.375000 0.000000
vt 0.375000 0.250000
vt 0.625000 0.250000
vt 0.375000 0.500000
vt 0.625000 0.500000
vt 0.375000 0.750000
vt 0.375000 1.000000
vt 0.625000 1.000000
vt 0.625000 0.750000
vn -1.0000 0.0000 0.0000
vn 0.0000 0.0000 -1.0000
vn 1.0000 0.0000 0.0000
vn 0.0000 0.0000 1.0000
vn 0.0000 -1.0000 0.0000
vn 0.0000 1.0000 0.0000
usemtl Red
s off
f 1/1/1 2/2/1 4/3/1 3/4/1
f 3/4/2 4/3/2 8/5/2 7/6/2
f 7/6/3 8/5/3 6/7/3 5/8/3
f 5/8/4 6/7/4 2/9/4 1/10/4
f 3/11/5 7/6/5 5/8/5 1/12/5
f 8/5/6 4/13/6 2/14/6 6/7/6
f 17/15/5 9/16/5 13/17/5 19/18/5 24/19/5 14/20/5 10/21/5 23/22/5
usemtl Blue
f 9/23/1 11/24/1 15/25/1 13/26/1
f 13/26/2 15/25/2 20/27/2 19/18/2
f 18/28/3 17/15/3 23/22/3 21/29/3
f 24/19/3 19/18/3 20/27/3 22/30/3
f 17/15/4 18/28/4 11/31/4 9/32/4
f 22/30/6 20/27/6 15/33/6 11/34/6 18/28/6 21/29/6 12/35/6 16/36/6
f 12/37/3 10/38/3 14/39/3 16/40/3
f 24/41/4 22/42/4 16/40/4 14/39/4
f 23/43/2 10/44/2 12/45/2 21/46/2
